<svg width="188" height="188" viewBox="0 0 188 188" fill="none" xmlns="http://www.w3.org/2000/svg">
<path d="M106.163 141.022C102.46 141.027 98.8686 139.756 95.9927 137.424L56.0957 104.489C54.5312 103.244 53.2677 101.661 52.3993 99.8599C51.5308 98.0586 51.0798 96.0845 51.0798 94.0847C51.0798 92.0849 51.5308 90.1109 52.3993 88.3095C53.2677 86.5081 54.5312 84.9257 56.0957 83.6802L95.9927 50.7456C98.3946 48.8211 101.289 47.6101 104.346 47.2505C107.402 46.8909 110.498 47.3972 113.281 48.7117C115.7 49.7778 117.761 51.5175 119.217 53.7232C120.674 55.9288 121.465 58.5071 121.496 61.1501V127.019C121.465 129.662 120.674 132.241 119.217 134.446C117.761 136.652 115.7 138.392 113.281 139.458C111.045 140.475 108.619 141.008 106.163 141.022V141.022Z" fill="#231F20"/>
</svg>
