<svg width="50" height="50" viewBox="0 0 50 50" fill="none" xmlns="http://www.w3.org/2000/svg">
<path d="M25 0C11.1929 0 0 11.1929 0 25C0 38.8071 11.1929 50 25 50C38.8071 50 50 38.8071 50 25C50 11.1929 38.8071 0 25 0ZM40.3206 40.3206C36.5217 44.1082 31.4487 46.3458 26.0902 46.5973C20.7316 46.8489 15.4713 45.0964 11.3343 41.6813C7.19727 38.2663 4.47986 33.4334 3.71155 28.1242C2.94324 22.815 4.17907 17.41 7.17825 12.9623C10.1774 8.51452 14.7251 5.34269 19.9351 4.06482C25.1452 2.78694 30.6443 3.49456 35.3612 6.04979C40.078 8.60502 43.6745 12.8248 45.45 17.8869C47.2254 22.9491 47.0527 28.4909 44.9653 33.4326C43.8774 36.0076 42.3 38.3468 40.3206 40.3206Z" fill="black"/>
<path d="M24.9733 36.9932C24.4069 36.9945 23.8579 36.7622 23.4218 36.3364L8.87579 22.0581C8.38071 21.5734 8.06936 20.8769 8.01026 20.1217C7.95115 19.3666 8.14913 18.6148 8.56063 18.0316C8.97213 17.4484 9.56345 17.0817 10.2045 17.0121C10.8456 16.9425 11.4838 17.1757 11.9789 17.6604L24.9733 30.4538L37.9677 18.1173C38.2157 17.8801 38.501 17.7029 38.8073 17.596C39.1136 17.4892 39.4348 17.4546 39.7525 17.4944C40.0701 17.5342 40.378 17.6476 40.6583 17.828C40.9387 18.0084 41.186 18.2523 41.386 18.5456C41.6081 18.8393 41.7762 19.1837 41.8799 19.5575C41.9837 19.9312 42.0208 20.3261 41.9889 20.7175C41.9571 21.1089 41.8569 21.4884 41.6948 21.8321C41.5326 22.1758 41.312 22.4763 41.0466 22.7149L26.5007 36.5078C26.052 36.8662 25.5142 37.0371 24.9733 36.9932V36.9932Z" fill="#231F20"/>
</svg>
