<svg width="61" height="60" viewBox="0 0 61 60" fill="none" xmlns="http://www.w3.org/2000/svg">
<path d="M30.8177 0C22.6624 0 21.646 0.0393799 18.4543 0.174397C15.2496 0.331916 13.0818 0.828854 11.169 1.57145C9.1963 2.34404 7.51609 3.3698 5.8565 5.03875C4.18567 6.69834 3.15054 8.37855 2.3892 10.3513C1.6466 12.264 1.14967 14.4318 0.992146 17.6366C0.847753 20.8301 0.817749 21.8446 0.817749 30C0.817749 38.1554 0.857129 39.1718 0.992146 42.3634C1.14967 45.5588 1.6466 47.736 2.3892 49.6487C3.16179 51.6215 4.18754 53.3017 5.8565 54.9612C7.51609 56.6321 9.1963 57.6672 11.169 58.4286C13.0818 59.1618 15.2589 59.6681 18.4543 59.8256C21.6479 59.97 22.6624 60 30.8177 60C38.9731 60 39.9895 59.9606 43.1812 59.8256C46.3766 59.6681 48.5537 59.1599 50.4664 58.4286C52.4392 57.656 54.1194 56.6302 55.779 54.9612C57.4498 53.3017 58.485 51.6308 59.2463 49.6487C59.9795 47.736 60.4858 45.5588 60.6433 42.3634C60.7877 39.1699 60.8177 38.1554 60.8177 30C60.8177 21.8446 60.7784 20.8282 60.6433 17.6366C60.4858 14.4412 59.9776 12.2528 59.2463 10.3513C58.4737 8.37855 57.4479 6.69834 55.779 5.03875C54.1194 3.36792 52.4486 2.33279 50.4664 1.57145C48.5537 0.828854 46.3766 0.331916 43.1812 0.174397C39.9876 0.0300038 38.9731 0 30.8177 0V0ZM30.8177 5.40068C38.8269 5.40068 39.7832 5.44005 42.9486 5.57507C45.8684 5.71196 47.4586 6.19952 48.5143 6.61208C49.9226 7.15777 50.9071 7.80285 51.9723 8.85673C53.0168 9.90124 53.6618 10.897 54.2075 12.3053C54.6201 13.361 55.1077 14.9512 55.2445 17.871C55.3796 21.0364 55.4189 21.9946 55.4189 30.0019C55.4189 38.0091 55.3796 38.9674 55.2333 42.1328C55.0758 45.0525 54.5882 46.6427 54.1775 47.6985C53.6093 49.1068 52.9755 50.0913 51.9291 51.1564C50.8734 52.2009 49.8682 52.846 48.4712 53.3917C47.4286 53.8042 45.8159 54.2918 42.8849 54.4287C39.7026 54.5637 38.765 54.6031 30.7352 54.6031C22.7055 54.6031 21.7697 54.5637 18.5837 54.4174C15.664 54.2599 14.0532 53.7723 12.9974 53.3617C11.5722 52.7935 10.5952 52.1596 9.54884 51.1133C8.49308 50.0575 7.82175 49.0524 7.30418 47.6553C6.88413 46.6127 6.40407 45 6.24843 42.069C6.14154 38.9242 6.09091 37.9491 6.09091 29.9569C6.09091 21.9684 6.14154 20.9914 6.24843 17.8072C6.40407 14.8762 6.88413 13.2673 7.30418 12.2209C7.82175 10.7938 8.49496 9.81873 9.54884 8.76297C10.5933 7.71846 11.5722 7.04338 12.9974 6.51456C14.0532 6.10389 15.6246 5.61633 18.5556 5.47006C21.7379 5.35567 22.6755 5.31441 30.694 5.31441L30.8177 5.40068ZM30.8177 14.6025C22.3023 14.6025 15.4164 21.4977 15.4164 30.0037C15.4164 38.5192 22.3117 45.405 30.8177 45.405C39.3332 45.405 46.219 38.5098 46.219 30.0037C46.219 21.4883 39.3238 14.6025 30.8177 14.6025ZM30.8177 40.0044C25.2896 40.0044 20.8171 35.5319 20.8171 30.0037C20.8171 24.4756 25.2896 20.0031 30.8177 20.0031C36.3459 20.0031 40.8184 24.4756 40.8184 30.0037C40.8184 35.5319 36.3459 40.0044 30.8177 40.0044ZM50.4402 13.9874C50.4402 15.9807 48.8181 17.5897 46.8341 17.5897C44.8407 17.5897 43.2318 15.9789 43.2318 13.9874C43.2318 12.0053 44.852 10.3925 46.8341 10.3925C48.8162 10.3925 50.4402 12.0053 50.4402 13.9874Z" fill="white"/>
</svg>
