<svg width="50" height="50" viewBox="0 0 50 50" fill="none" xmlns="http://www.w3.org/2000/svg">
<path d="M24.9998 22.9167C26.648 22.9167 28.2592 22.4279 29.6296 21.5123C31 20.5966 32.0681 19.2951 32.6988 17.7724C33.3296 16.2497 33.4946 14.5741 33.173 12.9576C32.8515 11.3411 32.0578 9.85622 30.8924 8.69078C29.727 7.52534 28.2421 6.73167 26.6256 6.41013C25.0091 6.08858 23.3335 6.25361 21.8108 6.88434C20.2881 7.51507 18.9866 8.58318 18.0709 9.95359C17.1552 11.324 16.6665 12.9352 16.6665 14.5833C16.6665 16.7935 17.5445 18.9131 19.1073 20.4759C20.6701 22.0387 22.7897 22.9167 24.9998 22.9167Z" fill="#239273"/>
<path d="M37.5001 43.75C38.0526 43.75 38.5825 43.5305 38.9732 43.1398C39.3639 42.7491 39.5834 42.2192 39.5834 41.6667C39.5834 37.7989 38.047 34.0896 35.3121 31.3547C32.5771 28.6198 28.8678 27.0833 25.0001 27.0833C21.1323 27.0833 17.423 28.6198 14.6881 31.3547C11.9532 34.0896 10.4167 37.7989 10.4167 41.6667C10.4167 42.2192 10.6362 42.7491 11.0269 43.1398C11.4176 43.5305 11.9475 43.75 12.5001 43.75H37.5001Z" fill="#239273"/>
</svg>
