<svg width="50" height="50" viewBox="0 0 50 50" fill="none" xmlns="http://www.w3.org/2000/svg">
<path d="M43.1458 40.1875L36.0625 33.125C38.3479 30.2135 39.5879 26.618 39.5833 22.9167C39.5833 19.6203 38.6059 16.398 36.7745 13.6572C34.9431 10.9164 32.3402 8.78014 29.2947 7.51868C26.2493 6.25722 22.8982 5.92717 19.6652 6.57025C16.4322 7.21334 13.4624 8.80069 11.1316 11.1316C8.80069 13.4624 7.21334 16.4322 6.57025 19.6652C5.92717 22.8982 6.25722 26.2493 7.51868 29.2947C8.78014 32.3402 10.9164 34.9431 13.6572 36.7745C16.398 38.6059 19.6203 39.5833 22.9167 39.5833C26.618 39.5879 30.2135 38.3479 33.125 36.0625L40.1875 43.1458C40.3812 43.3411 40.6116 43.4961 40.8655 43.6019C41.1194 43.7076 41.3917 43.7621 41.6667 43.7621C41.9417 43.7621 42.214 43.7076 42.4679 43.6019C42.7218 43.4961 42.9522 43.3411 43.1458 43.1458C43.3411 42.9522 43.4961 42.7218 43.6019 42.4679C43.7076 42.214 43.7621 41.9417 43.7621 41.6667C43.7621 41.3917 43.7076 41.1194 43.6019 40.8655C43.4961 40.6116 43.3411 40.3812 43.1458 40.1875ZM10.4167 22.9167C10.4167 20.4444 11.1498 18.0277 12.5233 15.972C13.8968 13.9164 15.8491 12.3143 18.1331 11.3682C20.4172 10.4221 22.9305 10.1745 25.3553 10.6569C27.7801 11.1392 30.0074 12.3297 31.7555 14.0778C33.5037 15.826 34.6942 18.0533 35.1765 20.478C35.6588 22.9028 35.4113 25.4161 34.4652 27.7002C33.5191 29.9843 31.9169 31.9365 29.8613 33.31C27.8057 34.6836 25.3889 35.4167 22.9167 35.4167C19.6015 35.4167 16.422 34.0997 14.0778 31.7555C11.7336 29.4113 10.4167 26.2319 10.4167 22.9167Z" fill="#239273"/>
</svg>
