<svg width="74" height="60" viewBox="0 0 74 60" fill="none" xmlns="http://www.w3.org/2000/svg">
<path d="M73.6771 7.14879C70.9619 8.3391 68.0554 9.15802 64.9919 9.52941C68.1177 7.65398 70.5075 4.68743 71.6471 1.1534C68.7151 2.86044 65.4717 4.09689 62.0231 4.79585C59.2734 1.85236 55.3426 0 50.9804 0C42.6182 0 35.8408 6.77509 35.8408 15.1257C35.8408 16.3276 35.9862 17.481 36.2376 18.5744C23.6586 17.9862 12.5075 11.9423 5.0496 2.812C3.73933 5.03576 2.99423 7.61938 2.99423 10.4314C2.99423 15.6932 5.67243 20.3068 9.72088 23.0196C7.24567 22.9481 4.9158 22.263 2.87428 21.135V21.3172C2.87428 28.6551 8.08766 34.7728 15.0081 36.1661C13.7463 36.5006 12.3991 36.6943 11.0311 36.6943C10.06 36.6943 9.13264 36.5998 8.20761 36.4291C10.1546 42.436 15.7278 46.8097 22.3714 46.9412C17.2065 50.9896 10.6597 53.4025 3.60554 53.4025C2.40369 53.4025 1.20415 53.3449 0 53.1995C6.72895 57.4902 14.6713 60 23.2503 60C51.0865 60 66.2976 36.9435 66.2976 16.9758C66.2976 16.3391 66.2976 15.6909 66.2491 15.0404C69.218 12.925 71.7878 10.2445 73.8178 7.20646L73.6771 7.14879Z" fill="white"/>
</svg>
